<?xml version="1.0" standalone="no"?>
<!DOCTYPE svg PUBLIC "-//W3C//DTD SVG 20010904//EN"
 "http://www.w3.org/TR/2001/REC-SVG-20010904/DTD/svg10.dtd">
<svg version="1.0" xmlns="http://www.w3.org/2000/svg"
 width="446.000000pt" height="400.000000pt" viewBox="0 0 446.000000 400.000000"
 preserveAspectRatio="xMidYMid meet">
<metadata>
Created by potrace 1.16, written by Peter Selinger 2001-2019
</metadata>
<g transform="translate(0.000000,400.000000) scale(0.100000,-0.100000)"
fill="#000000" stroke="none">
<path d="M1850 3914 c-14 -2 -59 -9 -100 -15 -423 -61 -856 -297 -1141 -622
-253 -288 -408 -629 -465 -1017 -27 -187 -10 -561 32 -702 5 -17 8 -17 36 -2
28 14 30 19 25 52 -37 244 -39 272 -34 447 8 284 60 499 182 750 188 387 490
686 880 870 517 245 1130 233 1633 -31 253 -133 483 -329 643 -550 34 -46 67
-84 74 -84 6 0 20 9 30 20 18 20 17 21 -15 68 -292 412 -705 683 -1200 787
-108 23 -155 27 -340 30 -118 2 -226 2 -240 -1z"/>
<path d="M4372 3680 c-100 -146 -532 -540 -747 -679 -205 -133 -565 -324 -880
-466 -93 -42 -173 -80 -178 -84 -10 -10 51 -91 69 -91 9 0 12 -4 9 -10 -5 -8
92 -158 126 -195 5 -5 9 38 9 104 l0 113 -36 -22 c-19 -12 -38 -20 -40 -17 -9
8 75 49 86 42 6 -3 10 -22 10 -41 0 -19 4 -34 9 -34 17 0 275 112 430 186 85
41 156 72 158 71 2 -2 -18 -24 -44 -47 -27 -24 -74 -68 -106 -97 l-58 -53 65
0 66 0 102 86 c415 347 743 740 923 1109 67 137 82 175 68 175 -4 0 -23 -23
-41 -50z"/>
<path d="M2468 3559 c-3 -9 -10 -37 -13 -63 -7 -42 -10 -46 -44 -56 -20 -5
-48 -10 -63 -10 -48 0 -30 -18 25 -25 65 -9 74 -16 82 -68 12 -71 23 -78 31
-19 4 29 13 59 20 67 8 7 39 17 69 20 30 4 55 11 55 15 0 4 -27 10 -60 14 -67
8 -71 12 -87 96 -6 29 -11 39 -15 29z"/>
<path d="M1414 3209 c-67 -8 -146 -43 -181 -81 -12 -13 -32 -46 -45 -73 -33
-74 -37 -253 -9 -392 39 -188 131 -426 250 -644 l61 -113 -32 -104 c-27 -89
-37 -108 -70 -136 -21 -18 -38 -36 -38 -39 0 -4 52 -7 115 -7 63 0 115 3 115
6 0 3 -11 20 -24 37 -20 27 -24 40 -19 75 l6 42 116 0 117 0 16 -44 16 -44
-34 -33 -35 -34 191 -5 192 -5 -204 -137 c-457 -307 -683 -471 -875 -635 -207
-177 -474 -465 -472 -510 0 -10 4 -26 8 -37 6 -15 21 -2 91 80 204 240 428
446 670 618 80 57 435 302 790 545 355 244 648 446 652 450 4 4 1 17 -7 29
-15 21 -19 19 -316 -180 l-300 -202 -38 39 c-34 35 -54 80 -156 353 l-118 312
-170 0 c-189 0 -180 5 -115 -65 l27 -30 -41 -139 c-38 -124 -43 -136 -56 -120
-27 36 -140 270 -185 384 -146 365 -153 666 -19 755 175 115 429 47 728 -196
201 -164 531 -530 678 -752 303 -461 437 -946 324 -1172 -50 -99 -117 -139
-233 -139 -93 0 -165 19 -283 75 -76 37 -102 42 -102 20 0 -12 131 -75 210
-102 98 -32 220 -37 292 -10 71 27 127 87 158 167 34 89 39 246 10 384 -63
310 -238 672 -467 965 -186 238 -466 527 -626 645 -215 159 -385 219 -563 199z
m282 -1217 l41 -97 -75 -3 c-41 -2 -77 -1 -79 2 -3 2 10 50 28 105 18 55 35
98 38 95 3 -2 24 -48 47 -102z"/>
<path d="M1596 3037 c-3 -12 -6 -32 -6 -44 0 -33 -24 -50 -80 -58 -27 -4 -50
-10 -50 -15 0 -4 25 -11 55 -15 61 -7 69 -15 80 -83 9 -53 21 -46 30 17 7 54
10 56 79 66 64 10 66 22 4 30 -67 9 -75 16 -84 71 -7 51 -19 64 -28 31z"/>
<path d="M3773 2748 l-21 -23 29 -74 c145 -362 156 -840 28 -1223 -216 -648
-745 -1113 -1420 -1250 -100 -20 -142 -23 -344 -23 -199 1 -244 4 -335 23
-300 64 -566 183 -783 350 l-59 45 -26 -27 -27 -27 25 -20 c77 -61 269 -182
360 -226 274 -133 535 -192 849 -193 374 0 706 94 1023 291 239 148 474 388
626 641 288 477 351 1078 169 1614 -37 108 -53 144 -66 144 -4 0 -17 -10 -28
-22z"/>
<path d="M2430 2398 c-25 -11 -148 -61 -275 -110 -126 -49 -231 -91 -233 -93
-4 -4 50 -148 59 -159 5 -5 56 5 124 24 88 25 115 37 115 50 0 43 33 121 70
162 44 51 109 83 188 94 57 7 61 12 34 37 -23 21 -26 21 -82 -5z"/>
<path d="M2430 2343 c-103 -28 -172 -97 -190 -192 -25 -131 48 -234 194 -273
l45 -12 116 78 c63 42 117 81 120 86 8 13 -37 34 -125 60 -41 12 -85 29 -97
36 -29 18 -29 53 -2 88 18 23 28 26 80 26 32 0 59 3 59 7 0 3 -18 30 -40 60
-46 60 -60 63 -160 36z"/>
<path d="M538 2333 c-16 -4 -16 -8 7 -47 l25 -43 0 -269 -1 -269 -30 -40 -30
-40 112 -3 c61 -1 114 0 117 2 3 3 -7 21 -22 40 l-26 35 2 167 3 167 116 -199
116 -199 49 -7 c71 -9 264 -9 264 0 0 4 -16 23 -35 42 l-35 34 0 276 0 275 25
36 c13 20 21 39 18 43 -10 9 -183 7 -183 -3 0 -4 9 -20 20 -34 19 -24 20 -38
18 -194 l-3 -168 -120 203 -120 202 -135 -1 c-74 -1 -143 -3 -152 -6z"/>
<path d="M3050 2332 c0 -4 16 -23 35 -42 19 -19 35 -40 35 -46 0 -7 -31 -114
-70 -238 -38 -123 -70 -232 -70 -241 0 -9 10 -45 22 -81 23 -63 23 -64 60 -64
44 0 45 3 18 37 -23 29 -25 47 -9 92 l11 31 113 0 113 0 16 -41 17 -42 -30
-31 c-17 -18 -31 -35 -31 -39 0 -4 99 -7 220 -7 121 0 220 3 220 6 0 3 -20 24
-44 47 -40 38 -55 68 -161 327 -65 157 -124 297 -131 313 l-15 27 -159 0 c-88
0 -160 -4 -160 -8z m179 -336 c23 -54 41 -100 41 -102 0 -2 -34 -4 -75 -4 -89
0 -88 -1 -50 111 34 100 35 102 39 98 2 -2 22 -48 45 -103z"/>
<path d="M2949 2179 c-68 -50 -125 -96 -127 -103 -1 -6 3 -19 10 -29 12 -16
22 -12 118 53 129 87 165 123 150 150 -6 11 -15 20 -19 20 -5 0 -64 -41 -132
-91z"/>
<path d="M1280 1981 l-85 -27 -3 -58 -3 -59 33 7 c156 30 241 51 245 62 2 7
-7 33 -22 58 -32 55 -42 56 -165 17z"/>
<path d="M2680 1900 c-58 -39 -106 -74 -108 -78 -1 -5 4 -15 13 -22 23 -19 18
-46 -16 -74 -27 -23 -39 -26 -107 -26 -74 0 -79 -2 -139 -42 -45 -31 -64 -50
-69 -71 -9 -42 1 -44 42 -7 31 27 42 31 68 25 176 -37 280 -22 389 59 85 62
114 231 49 289 -17 15 -25 12 -122 -53z"/>
<path d="M1580 1764 c0 -9 221 -324 232 -330 6 -4 16 0 24 8 12 12 3 29 -63
119 -43 57 -95 128 -115 157 -24 33 -45 52 -58 52 -11 0 -20 -3 -20 -6z"/>
<path d="M420 1652 c-138 -71 -252 -138 -340 -200 -62 -45 -64 -47 -37 -50 20
-3 89 26 236 100 192 95 209 106 236 148 37 56 39 60 28 60 -5 0 -60 -26 -123
-58z"/>
<path d="M3440 1520 c-1 -3 -7 -30 -13 -60 -13 -58 -10 -56 -101 -75 -37 -8
-29 -14 36 -29 l53 -11 10 -52 c11 -55 25 -81 25 -45 0 20 2 21 20 10 15 -9
22 -10 31 -1 15 15 3 33 -22 33 -11 0 -19 7 -19 18 0 29 13 40 55 47 68 11 80
16 64 25 -8 4 -35 11 -61 14 l-46 7 -15 62 c-8 34 -16 60 -17 57z"/>
<path d="M233 1468 c-29 -14 -29 -19 8 -125 70 -200 195 -414 341 -588 113
-134 155 -172 175 -159 45 28 40 39 -49 132 -179 186 -313 403 -402 652 -18
52 -38 95 -42 96 -5 2 -19 -2 -31 -8z"/>
<path d="M1899 1362 l-22 -19 28 -39 c49 -66 88 -105 128 -125 49 -25 81 -22
85 9 6 39 -43 99 -118 147 -39 25 -72 45 -74 45 -2 0 -14 -8 -27 -18z"/>
<path d="M1407 710 c-3 -8 -10 -35 -14 -60 l-9 -45 -64 -14 c-71 -16 -74 -13
33 -39 29 -7 33 -12 42 -59 13 -68 22 -74 30 -21 12 76 11 75 82 88 72 14 68
21 -19 34 l-46 7 -15 62 c-8 35 -16 56 -20 47z"/>
</g>
</svg>
