<?xml version="1.0" standalone="no"?>
<!DOCTYPE svg PUBLIC "-//W3C//DTD SVG 20010904//EN"
 "http://www.w3.org/TR/2001/REC-SVG-20010904/DTD/svg10.dtd">
<svg version="1.0" xmlns="http://www.w3.org/2000/svg"
 width="1920.000000pt" height="1080.000000pt" viewBox="0 0 1920.000000 1080.000000"
 preserveAspectRatio="xMidYMid meet">
<metadata>
Created by potrace 1.16, written by Peter Selinger 2001-2019
</metadata>
<g transform="translate(0.000000,1080.000000) scale(0.100000,-0.100000)"
fill="#000000" stroke="none">
<path d="M1140 8029 c-352 -40 -592 -149 -744 -340 -66 -83 -177 -302 -200
-394 -48 -194 -55 -527 -56 -2627 l0 -1748 493 0 c270 0 522 -3 560 -7 l67 -6
1 1519 c0 835 4 1700 8 1920 l7 401 25 49 c32 62 103 115 165 122 86 9 164
-41 214 -139 45 -87 93 -245 454 -1506 500 -1746 491 -1714 541 -1822 131
-276 351 -457 697 -573 206 -68 330 -87 569 -88 272 0 388 12 516 55 174 58
303 136 420 254 170 172 293 437 313 680 6 64 13 616 15 1231 3 613 7 1521 9
2018 l4 902 -579 0 -579 0 0 -1973 0 -1973 -34 -33 c-18 -17 -55 -39 -82 -47
-66 -20 -138 0 -184 52 -79 90 -146 302 -584 1841 -441 1549 -448 1567 -702
1813 -266 257 -475 366 -802 415 -106 16 -404 18 -532 4z"/>
<path d="M7478 8020 c-180 -17 -294 -50 -467 -131 -227 -107 -404 -257 -509
-429 -17 -30 -1442 -4483 -1442 -4509 0 -9 443 -19 919 -23 l284 -2 579 1795
c318 986 596 1851 618 1921 44 137 68 177 131 208 49 25 80 25 129 0 47 -24
78 -80 134 -240 40 -117 1150 -3555 1173 -3637 12 -41 20 -52 42 -57 57 -13
2027 -24 2886 -16 837 8 908 10 1015 29 213 37 370 104 532 226 298 224 535
647 599 1070 19 126 15 343 -9 455 -51 244 -177 456 -407 685 -232 230 -590
452 -841 520 -86 23 -343 33 -1094 41 l-665 7 -56 38 c-67 45 -111 93 -144
159 -78 153 -73 377 11 517 48 80 128 158 194 191 l55 27 1373 3 1372 3 0 530
0 531 -1502 -5 -1503 -4 -100 -22 c-446 -99 -752 -326 -938 -696 -97 -195
-144 -396 -154 -670 -21 -582 154 -1028 534 -1361 157 -137 342 -240 483 -269
106 -23 399 -33 1145 -40 649 -6 865 -15 940 -36 51 -14 101 -67 144 -153 30
-59 35 -79 39 -165 6 -118 -7 -182 -55 -278 -45 -90 -94 -140 -194 -199 l-78
-45 -1343 3 c-1170 3 -1347 5 -1372 18 -33 17 19 -138 -522 1560 -473 1484
-556 1728 -649 1896 -45 82 -264 307 -362 372 -131 88 -260 140 -418 167 -108
19 -386 27 -507 15z"/>
<path d="M16305 8019 c-346 -35 -623 -163 -842 -386 -142 -145 -217 -288 -316
-603 -100 -313 -661 -2123 -982 -3164 -157 -511 -283 -931 -280 -935 9 -8 475
-19 872 -20 288 -1 313 0 322 16 5 10 264 801 576 1758 311 957 595 1828 631
1936 63 191 65 196 102 216 74 42 156 35 193 -17 10 -14 304 -896 653 -1960
350 -1064 641 -1939 647 -1945 11 -11 1103 -15 1114 -3 4 4 -293 998 -660
2210 -517 1710 -675 2218 -702 2268 -131 237 -294 400 -508 505 -172 85 -340
122 -585 130 -80 2 -185 0 -235 -6z"/>
</g>
</svg>
